HIERARCHY
ROOT Pelvis
{
	OFFSET 0.000000 0.000000 0.000000
	CHANNELS 6 Xposition Yposition Zposition Xrotation Yrotation Zrotation
	JOINT LeftUpLeg_virtual
	{
		OFFSET 0.000000 0.000000 0.000000
		CHANNELS 3 Xrotation Yrotation Zrotation
		JOINT LeftUpLeg
		{
			OFFSET 18.735201 -5.666702 -4.541200
			CHANNELS 3 Xrotation Yrotation Zrotation
			JOINT LeftLeg
			{
				OFFSET -0.021200 -31.938179 0.493100
				CHANNELS 3 Xrotation Yrotation Zrotation
				JOINT LeftFoot
				{
					OFFSET 0.021200 -31.938179 -4.336299
					CHANNELS 3 Xrotation Yrotation Zrotation
					JOINT LeftToeBase
					{
						OFFSET 0.943001 -26.722000 15.023500
						CHANNELS 3 Xrotation Yrotation Zrotation
						End Site
						{
							OFFSET 0 0 0
						}
					}
				}
			}
		}
	}
	JOINT RightUpLeg_virtual
	{
		OFFSET 0.000000 0.000000 0.000000
		CHANNELS 3 Xrotation Yrotation Zrotation
		JOINT RightUpLeg
		{
			OFFSET -18.735201 -5.666702 -4.541200
			CHANNELS 3 Xrotation Yrotation Zrotation
			JOINT RightLeg
			{
				OFFSET 0.018946 -31.938133 0.493100
				CHANNELS 3 Xrotation Yrotation Zrotation
				JOINT RightFoot
				{
					OFFSET -0.018946 -31.938126 -4.336299
					CHANNELS 3 Xrotation Yrotation Zrotation
					JOINT RightToeBase
					{
						OFFSET -0.943001 -26.722004 15.023500
						CHANNELS 3 Xrotation Yrotation Zrotation
						End Site
						{
							OFFSET 0 0 0
						}
					}
				}
			}
		}
	}
	JOINT Hips_virtual
	{
		OFFSET 0.000000 0.000000 0.000000
		CHANNELS 3 Xrotation Yrotation Zrotation
		JOINT Hips
		{
			OFFSET -0.000000 -0.000000 -0.000000
			CHANNELS 3 Xrotation Yrotation Zrotation
			JOINT Spine
			{
				OFFSET 0.000000 10.199997 -0.299500
				CHANNELS 3 Xrotation Yrotation Zrotation
				JOINT Spine1
				{
					OFFSET 0.000000 11.900002 -1.516600
					CHANNELS 3 Xrotation Yrotation Zrotation
					JOINT Spine2
					{
						OFFSET 0.000000 13.600006 -2.842500
						CHANNELS 3 Xrotation Yrotation Zrotation
						JOINT Neck_virtual
						{
							OFFSET 0.000000 0.000000 0.000000
							CHANNELS 3 Xrotation Yrotation Zrotation
							JOINT Neck
							{
								OFFSET 0.000000 9.624100 -2.890100
								CHANNELS 3 Xrotation Yrotation Zrotation
								JOINT Head
								{
									OFFSET 0.000000 14.068802 -1.351900
									CHANNELS 3 Xrotation Yrotation Zrotation
									End Site
									{
										OFFSET 0 0 0
									}
								}
							}
						}
						JOINT LeftShoulder_virtual
						{
							OFFSET 0.000000 0.000000 0.000000
							CHANNELS 3 Xrotation Yrotation Zrotation
							JOINT LeftShoulder
							{
								OFFSET 15.263000 10.923401 -0.547700
								CHANNELS 3 Xrotation Yrotation Zrotation
								JOINT LeftArm
								{
									OFFSET 25.438599 -2.830597 -13.032500
									CHANNELS 3 Xrotation Yrotation Zrotation
									JOINT LeftForeArm
									{
										OFFSET 29.960503 0.000000 0.000000
										CHANNELS 3 Xrotation Yrotation Zrotation
										JOINT LeftHand
										{
											OFFSET 27.849251 0.000000 0.000000
											CHANNELS 3 Xrotation Yrotation Zrotation
											End Site
											{
												OFFSET 0 0 0
											}
										}
									}
								}
							}
						}
						JOINT RightShoulder_virtual
						{
							OFFSET 0.000000 0.000000 0.000000
							CHANNELS 3 Xrotation Yrotation Zrotation
							JOINT RightShoulder
							{
								OFFSET -15.263000 10.923401 -0.547700
								CHANNELS 3 Xrotation Yrotation Zrotation
								JOINT RightArm
								{
									OFFSET -25.438599 -2.830597 -13.032500
									CHANNELS 3 Xrotation Yrotation Zrotation
									JOINT RightForeArm
									{
										OFFSET -29.960503 0.000000 0.000000
										CHANNELS 3 Xrotation Yrotation Zrotation
										JOINT RightHand
										{
											OFFSET -27.849251 0.000000 0.000000
											CHANNELS 3 Xrotation Yrotation Zrotation
											End Site
											{
												OFFSET 0 0 0
											}
										}
									}
								}
							}
						}
					}
				}
			}
		}
	}
}
MOTION
Frames: 8
Frame Time: 0.03333333
-1.165317 79.134567 3.877241 0.000000 0.000000 0.000000 8.122744 -10.761235 3.218614 -58.689247 -1.035399 25.469441 54.139214 0.620282 5.926465 1.231160 1.624231 -24.065897 0.000000 0.000000 0.000000 8.122744 -10.761235 3.218614 -32.963890 5.088051 -35.330940 57.238905 2.571146 -1.051794 -23.501177 -8.779594 30.412479 0.000000 0.000000 0.000000 8.122744 -10.761235 3.218614 0.000000 0.000000 0.000000 8.209174 1.512430 -1.577917 6.501514 1.669130 -0.600553 0.000000 0.000000 0.000000 6.503122 1.665277 -0.587177 -0.696103 -0.031293 0.138982 0.000000 0.000000 0.000000 6.503122 1.665277 -0.587177 2.609672 -14.773704 -9.661122 -25.061846 -6.032406 -45.944982 -179.999978 -55.274272 -179.999964 0.000000 0.000000 0.000000 6.503122 1.665277 -0.587177 1.602767 8.845882 9.965478 3.934441 4.254978 41.144377 -0.000917 89.362036 0.000920 0.000000 0.000000 0.000000 
-1.111754 79.184959 3.930815 0.000000 0.000000 0.000000 8.149309 -10.742401 3.150447 -58.728781 -0.994272 25.433659 54.173826 0.640044 6.012382 1.171624 1.633835 -24.033484 0.000000 0.000000 0.000000 8.149309 -10.742401 3.150447 -32.807161 4.989859 -35.309373 56.920775 2.506272 -1.011606 -23.323365 -8.746189 30.475751 0.000000 0.000000 0.000000 8.149309 -10.742401 3.150447 0.000000 0.000000 0.000000 8.186022 1.504227 -1.603690 6.485268 1.665930 -0.610207 0.000000 0.000000 0.000000 6.486870 1.662227 -0.596724 -0.684965 -0.035529 0.154329 0.000000 0.000000 0.000000 6.486870 1.662227 -0.596724 2.607219 -14.764982 -9.614780 -25.050246 -6.005739 -46.040888 -179.999978 -55.123011 -179.999978 0.000000 0.000000 0.000000 6.486870 1.662227 -0.596724 1.606122 8.884878 9.946593 4.076250 4.257990 41.187646 0.001134 89.426991 -0.001453 0.000000 0.000000 0.000000 
-1.064322 79.213837 3.974638 0.000000 0.000000 0.000000 8.208328 -10.747145 3.075221 -58.811692 -1.028835 25.437936 54.269278 0.694369 6.048087 1.103908 1.646127 -24.008856 0.000000 0.000000 0.000000 8.208328 -10.747145 3.075221 -32.765842 4.869845 -35.269731 56.656511 2.511200 -1.016425 -23.152381 -8.712222 30.529822 0.000000 0.000000 0.000000 8.208328 -10.747145 3.075221 0.000000 0.000002 0.000000 8.163315 1.500453 -1.634994 6.469512 1.666600 -0.622082 0.000000 0.000000 0.000000 6.471172 1.662709 -0.608367 -0.664362 -0.036339 0.163762 0.000000 0.000000 0.000000 6.471172 1.662709 -0.608367 2.606489 -14.776933 -9.549426 -25.079249 -5.936105 -46.237457 -179.999923 -55.052400 -179.999923 0.000000 0.000000 0.000000 6.471172 1.662709 -0.608367 1.612933 8.972300 9.892405 4.280591 4.276507 41.166609 0.003168 89.494097 -0.002708 0.000000 0.000000 0.000000 
-1.021880 79.228691 4.013653 0.000000 0.000000 0.000000 8.256592 -10.777482 3.029084 -58.838781 -1.123109 25.454076 54.377257 0.777116 6.002719 1.017583 1.662148 -23.996162 0.000000 0.000000 0.000000 8.256592 -10.777482 3.029084 -32.752369 4.810857 -35.250292 56.463640 2.536281 -1.024333 -23.010194 -8.686226 30.582698 0.000000 0.000000 0.000000 8.256592 -10.777482 3.029084 0.000000 0.000001 0.000000 8.141850 1.500520 -1.667564 6.454643 1.669952 -0.635076 0.000000 0.000000 0.000000 6.456431 1.665761 -0.621080 -0.639504 -0.035615 0.169300 0.000000 0.000000 0.000000 6.456431 1.665761 -0.621080 2.606931 -14.801049 -9.475212 -25.130218 -5.847825 -46.486431 179.999950 -55.028751 179.999950 0.000000 0.000000 0.000000 6.456431 1.665761 -0.621080 1.621829 9.085367 9.820729 4.518114 4.299210 41.105216 0.000047 89.562993 0.000225 0.000000 0.000000 0.000000 
-0.985530 79.233444 4.052071 0.000000 0.000000 0.000000 8.256112 -10.834393 2.996098 -58.792807 -1.255920 25.482565 54.521200 0.901444 5.907484 0.909758 1.683301 -23.994038 0.000000 0.000000 0.000000 8.256112 -10.834393 2.996098 -32.705241 4.806603 -35.253881 56.327986 2.573972 -1.008550 -22.907894 -8.670017 30.629143 0.000000 0.000000 0.000000 8.256112 -10.834393 2.996098 0.000000 0.000000 0.000000 8.123186 1.504969 -1.702139 6.441680 1.676748 -0.649059 0.000000 0.000000 0.000000 6.443580 1.672275 -0.634775 -0.612190 -0.033907 0.170578 0.000000 0.000000 0.000000 6.443580 1.672275 -0.634775 2.608810 -14.838625 -9.394291 -25.202293 -5.748881 -46.782267 179.999950 -55.053708 179.999950 0.000000 0.000000 0.000000 6.443580 1.672275 -0.634775 1.632843 9.221985 9.735142 4.785606 4.318986 40.998388 0.000406 89.635229 -0.000670 0.000000 0.000000 0.000000 
-0.946337 79.231804 4.082220 0.000000 0.000000 0.000000 8.285844 -10.872306 2.963280 -58.805149 -1.378463 25.491914 54.653135 0.992104 5.846882 0.821684 1.700911 -23.995325 0.000000 0.000000 0.000000 8.285844 -10.872306 2.963280 -32.727873 4.754058 -35.218839 56.209455 2.598718 -1.095478 -22.793420 -8.661158 30.716109 0.000000 0.000000 0.000000 8.285844 -10.872306 2.963280 0.000001 0.000000 0.000000 8.108791 1.513670 -1.737880 6.431510 1.687192 -0.663702 0.000000 0.000000 0.000000 6.433507 1.682588 -0.649155 -0.584709 -0.031973 0.167535 0.000000 0.000000 0.000000 6.433507 1.682588 -0.649155 2.612171 -14.888083 -9.310859 -25.290135 -5.650536 -47.109242 179.999964 -55.122478 179.999991 0.000000 0.000000 0.000000 6.433507 1.682588 -0.649155 1.645603 9.375551 9.642415 5.074301 4.329370 40.844333 -0.002751 89.709931 0.003204 0.000000 0.000000 0.000000 
-0.901464 79.231392 4.104498 0.000000 0.000000 0.000000 8.284836 -10.912753 2.926759 -58.799179 -1.480763 25.482490 54.788352 1.094307 5.821383 0.730644 1.718936 -24.005519 0.000000 0.000000 0.000000 8.284836 -10.912753 2.926759 -32.730635 4.705705 -35.242499 56.092840 2.679638 -1.097112 -22.682351 -8.637173 30.744970 0.000000 0.000000 0.000000 8.284836 -10.912753 2.926759 0.000000 -0.000001 0.000000 8.099716 1.525856 -1.774425 6.424809 1.700721 -0.678535 0.000000 0.000000 0.000000 6.426779 1.696289 -0.663806 -0.559779 -0.030569 0.160417 0.000000 0.000000 0.000000 6.426779 1.696289 -0.663806 2.616664 -14.944698 -9.230449 -25.384663 -5.564493 -47.444495 -179.999978 -55.224969 -179.999978 0.000000 0.000000 0.000000 6.426779 1.696289 -0.663806 1.659449 9.536462 9.550710 5.371341 4.326786 40.644728 -0.001169 89.787857 0.001605 0.000000 0.000000 0.000000 
-0.859906 79.223312 4.123156 0.000000 0.000000 0.000000 8.306201 -10.946677 2.909455 -58.834041 -1.538619 25.444511 54.909274 1.178282 5.853318 0.655157 1.735149 -24.030042 0.000000 0.000000 0.000000 8.306201 -10.946677 2.909455 -32.774294 4.666741 -35.253325 56.015587 2.738829 -1.147217 -22.588279 -8.624429 30.796971 0.000000 0.000000 0.000000 8.306201 -10.946677 2.909455 0.000001 0.000000 0.000000 8.095989 1.540212 -1.809304 6.421639 1.716007 -0.693091 0.000000 0.000000 0.000000 6.423502 1.712111 -0.678285 -0.540013 -0.030152 0.149480 0.000000 0.000000 0.000000 6.423502 1.712111 -0.678285 2.621531 -15.001273 -9.158820 -25.474724 -5.499711 -47.762871 179.999991 -55.347973 -179.999991 0.000000 0.000000 0.000000 6.423502 1.712111 -0.678285 1.673461 9.694522 9.466826 5.662580 4.311335 40.405207 0.000798 89.861520 -0.004267 0.000000 0.000000 0.000000 
